<?xml version="1.0" encoding="UTF-8" standalone="no"?>
<svg
   xmlns:dc="http://purl.org/dc/elements/1.1/"
   xmlns:cc="http://creativecommons.org/ns#"
   xmlns:rdf="http://www.w3.org/1999/02/22-rdf-syntax-ns#"
   xmlns:svg="http://www.w3.org/2000/svg"
   xmlns="http://www.w3.org/2000/svg"
   id="svg8"
   version="1.1"
   viewBox="0 0 7.5288739 9.4548798"
   height="9.4548798mm"
   width="7.5288739mm">
  <defs
     id="defs2" />
  <metadata
     id="metadata5">
    <rdf:RDF>
      <cc:Work
         rdf:about="">
        <dc:format>image/svg+xml</dc:format>
        <dc:type
           rdf:resource="http://purl.org/dc/dcmitype/StillImage" />
        <dc:title></dc:title>
      </cc:Work>
    </rdf:RDF>
  </metadata>
  <g
     transform="translate(-97.53318,-132.01066)"
     id="layer1">
    <g
       id="layer1-6"
       transform="translate(23.511255,10.156496)">
      <path
         id="path3818"
         d="m 77.786358,121.85416 c 0.962998,0 1.925993,0.43772 2.626355,1.13808 0.700358,0.7879 1.138086,1.66336 1.138086,2.71389 0,1.05055 -0.437728,2.18867 -1.138086,2.88902 l -2.626355,2.71389 -2.626347,-2.71389 c -0.700365,-0.70035 -1.138086,-1.75088 -1.138086,-2.88902 0,-1.05053 0.350177,-1.92599 1.138086,-2.71389 0.700362,-0.70036 1.663353,-1.13808 2.626347,-1.13808 z"
         class="path1"
         scale="0.1"
         style="fill:#ef5411;stroke-width:0.87545049" />
      <path
         style="color:#000000;font-style:normal;font-variant:normal;font-weight:normal;font-stretch:normal;font-size:medium;line-height:normal;font-family:sans-serif;font-variant-ligatures:normal;font-variant-position:normal;font-variant-caps:normal;font-variant-numeric:normal;font-variant-alternates:normal;font-feature-settings:normal;text-indent:0;text-align:start;text-decoration:none;text-decoration-line:none;text-decoration-style:solid;text-decoration-color:#000000;letter-spacing:normal;word-spacing:normal;text-transform:none;writing-mode:lr-tb;direction:ltr;text-orientation:mixed;dominant-baseline:auto;baseline-shift:baseline;text-anchor:start;white-space:normal;shape-padding:0;clip-rule:nonzero;display:inline;overflow:visible;visibility:visible;opacity:1;isolation:auto;mix-blend-mode:normal;color-interpolation:sRGB;color-interpolation-filters:linearRGB;solid-color:#000000;solid-opacity:1;vector-effect:none;fill-opacity:1;fill-rule:nonzero;stroke:none;stroke-width:0.78489786;stroke-linecap:butt;stroke-linejoin:miter;stroke-miterlimit:4;stroke-dasharray:none;stroke-dashoffset:0;stroke-opacity:1;color-rendering:auto;image-rendering:auto;shape-rendering:auto;text-rendering:auto;enable-background:accumulate"
         d="m 77.786358,121.85416 c -0.980206,0 -1.929581,0.43856 -2.625385,1.13737 -0.766439,0.76972 -1.132522,1.68444 -1.132522,2.71571 0,1.12344 0.425176,2.16352 1.132522,2.8739 l 2.625385,2.7279 2.628417,-2.7279 0.0031,-0.003 c 0.717187,-0.72201 1.129495,-1.81902 1.129495,-2.87085 0,-1.05311 -0.44894,-1.94224 -1.11738,-2.69747 l -0.0092,-0.009 -0.0061,-0.009 c -0.695806,-0.6988 -1.648205,-1.1374 -2.628417,-1.1374 z m 0,0.78764 c 0.739746,0 1.508385,0.34763 2.065186,0.90323 0.577211,0.65633 0.911466,1.33338 0.911466,2.16221 0,0.83468 -0.368119,1.78081 -0.902382,2.31736 l -0.0031,0.003 -2.071239,2.15007 -2.068213,-2.15007 -0.0031,-0.003 c -0.54581,-0.54813 -0.90238,-1.39557 -0.90238,-2.31736 0,-0.85649 0.259019,-1.51306 0.90238,-2.15918 0.557346,-0.55974 1.328368,-0.90626 2.07124,-0.90626 z"
         id="path3818-6" />
    </g>
    <g
       transform="translate(106.96839,135.88823)"
       id="g3725">
      <g
         transform="matrix(1.4989733,0,0,1.4989733,-8.8641446,-3.5319402)"
         id="layer2"
         style="display:inline">
        <path
           style="fill:none;stroke:#000000;stroke-width:0.52236181px;stroke-linecap:butt;stroke-linejoin:miter;stroke-opacity:1"
           d="m 1.0127205,2.6121696 0.890435,0.791498 1.4016106,-1.8798073"
           id="path4602" />
      </g>
    </g>
  </g>
</svg>
