<?xml version="1.0" encoding="UTF-8" standalone="no"?>
<!-- Created with Inkscape (http://www.inkscape.org/) -->

<svg
   xmlns:dc="http://purl.org/dc/elements/1.1/"
   xmlns:cc="http://creativecommons.org/ns#"
   xmlns:rdf="http://www.w3.org/1999/02/22-rdf-syntax-ns#"
   xmlns:svg="http://www.w3.org/2000/svg"
   xmlns="http://www.w3.org/2000/svg"
   xmlns:sodipodi="http://sodipodi.sourceforge.net/DTD/sodipodi-0.dtd"
   xmlns:inkscape="http://www.inkscape.org/namespaces/inkscape"
   width="4.3444738mm"
   height="5.4558601mm"
   viewBox="0 0 4.3444738 5.4558601"
   version="1.1"
   id="svg8"
   sodipodi:docname="base-marker-1-completed.svg"
   inkscape:version="0.92.2 5c3e80d, 2017-08-06">
  <defs
     id="defs2" />
  <sodipodi:namedview
     id="base"
     pagecolor="#ffffff"
     bordercolor="#666666"
     borderopacity="1.0"
     inkscape:pageopacity="0.0"
     inkscape:pageshadow="2"
     inkscape:zoom="31.678384"
     inkscape:cx="4.9346189"
     inkscape:cy="11.866009"
     inkscape:document-units="mm"
     inkscape:current-layer="layer2"
     showgrid="false"
     inkscape:window-width="2558"
     inkscape:window-height="1062"
     inkscape:window-x="0"
     inkscape:window-y="0"
     inkscape:window-maximized="0" />
  <metadata
     id="metadata5">
    <rdf:RDF>
      <cc:Work
         rdf:about="">
        <dc:format>image/svg+xml</dc:format>
        <dc:type
           rdf:resource="http://purl.org/dc/dcmitype/StillImage" />
      </cc:Work>
    </rdf:RDF>
  </metadata>
  <g
     inkscape:label="bg"
     inkscape:groupmode="layer"
     id="layer1"
     transform="translate(-87.030141,-154.42088)"
     style="display:inline">
    <g
       transform="translate(13.008216,32.56672)"
       id="layer1-6"
       inkscape:label="Layer 1">
      <path
         style="fill:#ef5411;stroke-width:0.50517142"
         inkscape:connector-curvature="0"
         scale="0.1"
         class="path1"
         d="m 76.19416,121.85416 c 0.55569,0 1.111378,0.25258 1.515516,0.65672 0.404136,0.45465 0.656723,0.95983 0.656723,1.56603 0,0.60621 -0.252587,1.26295 -0.656723,1.66708 l -1.515516,1.56603 -1.515512,-1.56603 c -0.40414,-0.40413 -0.656723,-1.01033 -0.656723,-1.66708 0,-0.6062 0.202067,-1.11138 0.656723,-1.56603 0.404138,-0.40414 0.959824,-0.65672 1.515512,-0.65672 z"
         id="path3818" />
      <path
         inkscape:connector-curvature="0"
         id="path3818-6"
         d="m 76.19416,121.85416 c -0.56562,0 -1.113449,0.25307 -1.514957,0.65631 -0.442267,0.44416 -0.653512,0.97199 -0.653512,1.56708 0,0.64827 0.245344,1.24844 0.653512,1.65836 l 1.514957,1.57411 1.516706,-1.57411 0.0018,-0.002 c 0.413847,-0.41663 0.651766,-1.04965 0.651766,-1.6566 0,-0.60769 -0.259057,-1.12075 -0.644775,-1.55655 l -0.0053,-0.005 -0.0035,-0.005 c -0.401509,-0.40324 -0.951083,-0.65633 -1.516706,-0.65633 z m 0,0.4545 c 0.426864,0 0.870401,0.2006 1.191698,0.5212 0.333075,0.37873 0.525954,0.76942 0.525954,1.24769 0,0.48164 -0.21242,1.0276 -0.520712,1.33721 l -0.0018,0.002 -1.195191,1.24068 -1.193445,-1.24068 -0.0018,-0.002 c -0.314955,-0.31629 -0.520711,-0.8053 -0.520711,-1.33721 0,-0.49423 0.149465,-0.8731 0.520711,-1.24594 0.321612,-0.32299 0.766524,-0.52295 1.195192,-0.52295 z"
         style="color:#000000;font-style:normal;font-variant:normal;font-weight:normal;font-stretch:normal;font-size:medium;line-height:normal;font-family:sans-serif;font-variant-ligatures:normal;font-variant-position:normal;font-variant-caps:normal;font-variant-numeric:normal;font-variant-alternates:normal;font-feature-settings:normal;text-indent:0;text-align:start;text-decoration:none;text-decoration-line:none;text-decoration-style:solid;text-decoration-color:#000000;letter-spacing:normal;word-spacing:normal;text-transform:none;writing-mode:lr-tb;direction:ltr;text-orientation:mixed;dominant-baseline:auto;baseline-shift:baseline;text-anchor:start;white-space:normal;shape-padding:0;clip-rule:nonzero;display:inline;overflow:visible;visibility:visible;opacity:1;isolation:auto;mix-blend-mode:normal;color-interpolation:sRGB;color-interpolation-filters:linearRGB;solid-color:#000000;solid-opacity:1;vector-effect:none;fill-opacity:1;fill-rule:nonzero;stroke:none;stroke-width:0.4529188;stroke-linecap:butt;stroke-linejoin:miter;stroke-miterlimit:4;stroke-dasharray:none;stroke-dashoffset:0;stroke-opacity:1;color-rendering:auto;image-rendering:auto;shape-rendering:auto;text-rendering:auto;enable-background:accumulate" />
    </g>
  </g>
  <g
     inkscape:groupmode="layer"
     id="layer2"
     inkscape:label="pipa"
     style="display:inline">
    <path
       style="fill:none;stroke:#000000;stroke-width:0.52236181px;stroke-linecap:butt;stroke-linejoin:miter;stroke-opacity:1"
       d="m 1.0127205,2.6121696 0.890435,0.791498 1.4016106,-1.8798073"
       id="path4602"
       inkscape:connector-curvature="0" />
  </g>
</svg>
