<?xml version="1.0" encoding="UTF-8" standalone="no"?>
<svg
   xmlns:dc="http://purl.org/dc/elements/1.1/"
   xmlns:cc="http://creativecommons.org/ns#"
   xmlns:rdf="http://www.w3.org/1999/02/22-rdf-syntax-ns#"
   xmlns:svg="http://www.w3.org/2000/svg"
   xmlns="http://www.w3.org/2000/svg"
   id="svg8"
   version="1.1"
   viewBox="0 0 12.874244 8.1535329"
   height="8.153533mm"
   width="12.874244mm">
  <defs
     id="defs2" />
  <metadata
     id="metadata5">
    <rdf:RDF>
      <cc:Work
         rdf:about="">
        <dc:format>image/svg+xml</dc:format>
        <dc:type
           rdf:resource="http://purl.org/dc/dcmitype/StillImage" />
        <dc:title></dc:title>
      </cc:Work>
    </rdf:RDF>
  </metadata>
  <g
     transform="translate(-37.477795,-169.10616)"
     id="layer1">
    <g
       transform="matrix(0.02103638,0,0,0.02103638,37.477795,166.74579)"
       id="g80">
      <g
         id="g20">
        <g
           id="g18">
          <path
             style="fill:#d80027"
             d="m 504.9,395.756 c -28.684,0 -52.02,23.342 -52.02,52.02 0,28.684 23.336,52.02 52.02,52.02 28.678,0 52.02,-23.336 52.02,-52.02 0,-28.678 -23.342,-52.02 -52.02,-52.02 z m 0,67.32 c -8.439,0 -15.3,-6.861 -15.3,-15.3 0,-8.439 6.861,-15.3 15.3,-15.3 8.439,0 15.3,6.861 15.3,15.3 0,8.439 -6.861,15.3 -15.3,15.3 z"
             id="path10" />
          <path
             style="fill:#d80027"
             d="M 499.918,179.518 H 410.04 c -6.763,0 -12.24,5.484 -12.24,12.24 v 238.68 c 0,6.756 5.477,12.24 12.24,12.24 h 12.981 c 6.059,0 11.426,-4.364 12.209,-10.373 4.804,-36.806 34.162,-59.633 69.676,-59.633 35.514,0 64.872,22.828 69.676,59.633 0.783,6.01 6.144,10.373 12.209,10.373 h 12.968 c 6.756,0 12.24,-5.484 12.24,-12.24 v -119.34 c 0,-2.876 -1.01,-5.655 -2.852,-7.852 l -99.842,-119.34 c -2.324,-2.778 -5.764,-4.388 -9.387,-4.388 z m -77.638,97.92 v -61.2 c 0,-6.756 5.477,-12.24 12.24,-12.24 h 53.917 c 3.629,0 7.075,1.616 9.4,4.406 l 50.998,61.2 c 6.64,7.974 0.973,20.074 -9.406,20.074 H 434.52 c -6.763,0 -12.24,-5.477 -12.24,-12.24 z"
             id="path12" />
          <path
             style="fill:#d80027"
             d="m 12.24,442.684 h 31.341 c 6.059,0 11.426,-4.364 12.209,-10.373 4.804,-36.806 34.162,-59.633 69.676,-59.633 35.514,0 64.872,22.828 69.676,59.633 0.783,6.01 6.144,10.373 12.209,10.373 H 361.08 c 6.757,0 12.24,-5.484 12.24,-12.24 v -306 c 0,-6.756 -5.484,-12.24 -12.24,-12.24 H 12.24 C 5.477,112.204 0,117.688 0,124.444 v 306 c 0,6.757 5.477,12.24 12.24,12.24 z"
             id="path14" />
          <path
             style="fill:#d80027"
             d="m 125.46,395.756 c -28.684,0 -52.02,23.342 -52.02,52.02 0,28.684 23.336,52.02 52.02,52.02 28.678,0 52.02,-23.336 52.02,-52.02 0,-28.678 -23.342,-52.02 -52.02,-52.02 z m 0,67.32 c -8.439,0 -15.3,-6.861 -15.3,-15.3 0,-8.439 6.861,-15.3 15.3,-15.3 8.439,0 15.3,6.861 15.3,15.3 0,8.439 -6.861,15.3 -15.3,15.3 z"
             id="path16" />
        </g>
      </g>
    </g>
  </g>
</svg>
